<mxfile host="65bd71144e">
    <diagram id="Civecy_D8HoM32e-n01-" name="Página-1">
        <mxGraphModel dx="1130" dy="514" grid="1" gridSize="10" guides="1" tooltips="1" connect="1" arrows="1" fold="1" page="1" pageScale="1" pageWidth="827" pageHeight="1169" math="0" shadow="0">
            <root>
                <mxCell id="0"/>
                <mxCell id="1" parent="0"/>
                <mxCell id="2" value="Cliente" style="swimlane;fontStyle=0;childLayout=stackLayout;horizontal=1;startSize=26;fillColor=none;horizontalStack=0;resizeParent=1;resizeParentMax=0;resizeLast=0;collapsible=1;marginBottom=0;" vertex="1" parent="1">
                    <mxGeometry x="80" y="441" width="140" height="182" as="geometry"/>
                </mxCell>
                <mxCell id="3" value="_id: ObjectId *" style="text;strokeColor=none;fillColor=none;align=left;verticalAlign=top;spacingLeft=4;spacingRight=4;overflow=hidden;rotatable=0;points=[[0,0.5],[1,0.5]];portConstraint=eastwest;" vertex="1" parent="2">
                    <mxGeometry y="26" width="140" height="26" as="geometry"/>
                </mxCell>
                <mxCell id="4" value="nome: String *" style="text;strokeColor=none;fillColor=none;align=left;verticalAlign=top;spacingLeft=4;spacingRight=4;overflow=hidden;rotatable=0;points=[[0,0.5],[1,0.5]];portConstraint=eastwest;" vertex="1" parent="2">
                    <mxGeometry y="52" width="140" height="26" as="geometry"/>
                </mxCell>
                <mxCell id="5" value="cpf: String *" style="text;strokeColor=none;fillColor=none;align=left;verticalAlign=top;spacingLeft=4;spacingRight=4;overflow=hidden;rotatable=0;points=[[0,0.5],[1,0.5]];portConstraint=eastwest;" vertex="1" parent="2">
                    <mxGeometry y="78" width="140" height="26" as="geometry"/>
                </mxCell>
                <mxCell id="6" value="telefone: String *" style="text;strokeColor=none;fillColor=none;align=left;verticalAlign=top;spacingLeft=4;spacingRight=4;overflow=hidden;rotatable=0;points=[[0,0.5],[1,0.5]];portConstraint=eastwest;" vertex="1" parent="2">
                    <mxGeometry y="104" width="140" height="26" as="geometry"/>
                </mxCell>
                <mxCell id="7" value="email: String *" style="text;strokeColor=none;fillColor=none;align=left;verticalAlign=top;spacingLeft=4;spacingRight=4;overflow=hidden;rotatable=0;points=[[0,0.5],[1,0.5]];portConstraint=eastwest;" vertex="1" parent="2">
                    <mxGeometry y="130" width="140" height="26" as="geometry"/>
                </mxCell>
                <mxCell id="8" value="senha: String *" style="text;strokeColor=none;fillColor=none;align=left;verticalAlign=top;spacingLeft=4;spacingRight=4;overflow=hidden;rotatable=0;points=[[0,0.5],[1,0.5]];portConstraint=eastwest;" vertex="1" parent="2">
                    <mxGeometry y="156" width="140" height="26" as="geometry"/>
                </mxCell>
                <mxCell id="9" value="Imovel" style="swimlane;fontStyle=0;childLayout=stackLayout;horizontal=1;startSize=26;fillColor=none;horizontalStack=0;resizeParent=1;resizeParentMax=0;resizeLast=0;collapsible=1;marginBottom=0;" vertex="1" parent="1">
                    <mxGeometry x="590" y="441" width="140" height="234" as="geometry"/>
                </mxCell>
                <mxCell id="10" value="_id: ObjectId *" style="text;strokeColor=none;fillColor=none;align=left;verticalAlign=top;spacingLeft=4;spacingRight=4;overflow=hidden;rotatable=0;points=[[0,0.5],[1,0.5]];portConstraint=eastwest;" vertex="1" parent="9">
                    <mxGeometry y="26" width="140" height="26" as="geometry"/>
                </mxCell>
                <mxCell id="11" value="proprietario: String *" style="text;strokeColor=none;fillColor=none;align=left;verticalAlign=top;spacingLeft=4;spacingRight=4;overflow=hidden;rotatable=0;points=[[0,0.5],[1,0.5]];portConstraint=eastwest;" vertex="1" parent="9">
                    <mxGeometry y="52" width="140" height="26" as="geometry"/>
                </mxCell>
                <mxCell id="12" value="area: String" style="text;strokeColor=none;fillColor=none;align=left;verticalAlign=top;spacingLeft=4;spacingRight=4;overflow=hidden;rotatable=0;points=[[0,0.5],[1,0.5]];portConstraint=eastwest;" vertex="1" parent="9">
                    <mxGeometry y="78" width="140" height="26" as="geometry"/>
                </mxCell>
                <mxCell id="13" value="qtde_quartos: String" style="text;strokeColor=none;fillColor=none;align=left;verticalAlign=top;spacingLeft=4;spacingRight=4;overflow=hidden;rotatable=0;points=[[0,0.5],[1,0.5]];portConstraint=eastwest;" vertex="1" parent="9">
                    <mxGeometry y="104" width="140" height="26" as="geometry"/>
                </mxCell>
                <mxCell id="14" value="qtde_banheiros: String" style="text;strokeColor=none;fillColor=none;align=left;verticalAlign=top;spacingLeft=4;spacingRight=4;overflow=hidden;rotatable=0;points=[[0,0.5],[1,0.5]];portConstraint=eastwest;" vertex="1" parent="9">
                    <mxGeometry y="130" width="140" height="26" as="geometry"/>
                </mxCell>
                <mxCell id="15" value="valor: String *" style="text;strokeColor=none;fillColor=none;align=left;verticalAlign=top;spacingLeft=4;spacingRight=4;overflow=hidden;rotatable=0;points=[[0,0.5],[1,0.5]];portConstraint=eastwest;" vertex="1" parent="9">
                    <mxGeometry y="156" width="140" height="26" as="geometry"/>
                </mxCell>
                <mxCell id="16" value="tipo: String *" style="text;strokeColor=none;fillColor=none;align=left;verticalAlign=top;spacingLeft=4;spacingRight=4;overflow=hidden;rotatable=0;points=[[0,0.5],[1,0.5]];portConstraint=eastwest;" vertex="1" parent="9">
                    <mxGeometry y="182" width="140" height="26" as="geometry"/>
                </mxCell>
                <mxCell id="17" value="finalidade: String *" style="text;strokeColor=none;fillColor=none;align=left;verticalAlign=top;spacingLeft=4;spacingRight=4;overflow=hidden;rotatable=0;points=[[0,0.5],[1,0.5]];portConstraint=eastwest;" vertex="1" parent="9">
                    <mxGeometry y="208" width="140" height="26" as="geometry"/>
                </mxCell>
                <mxCell id="18" style="rounded=0;orthogonalLoop=1;jettySize=auto;html=1;entryX=0.475;entryY=0.991;entryDx=0;entryDy=0;entryPerimeter=0;startArrow=diamondThin;startFill=1;endSize=12;startSize=12;exitX=0.449;exitY=0.001;exitDx=0;exitDy=0;exitPerimeter=0;" edge="1" parent="1" source="20" target="32">
                    <mxGeometry relative="1" as="geometry"/>
                </mxCell>
                <mxCell id="19" value="n" style="edgeLabel;html=1;align=center;verticalAlign=middle;resizable=0;points=[];" vertex="1" connectable="0" parent="18">
                    <mxGeometry x="-0.8336" y="-2" relative="1" as="geometry">
                        <mxPoint x="6" as="offset"/>
                    </mxGeometry>
                </mxCell>
                <mxCell id="20" value="Agenda" style="swimlane;fontStyle=0;childLayout=stackLayout;horizontal=1;startSize=26;fillColor=none;horizontalStack=0;resizeParent=1;resizeParentMax=0;resizeLast=0;collapsible=1;marginBottom=0;" vertex="1" parent="1">
                    <mxGeometry x="343" y="721" width="140" height="156" as="geometry"/>
                </mxCell>
                <mxCell id="21" value="_id: ObjectId *" style="text;strokeColor=none;fillColor=none;align=left;verticalAlign=top;spacingLeft=4;spacingRight=4;overflow=hidden;rotatable=0;points=[[0,0.5],[1,0.5]];portConstraint=eastwest;" vertex="1" parent="20">
                    <mxGeometry y="26" width="140" height="26" as="geometry"/>
                </mxCell>
                <mxCell id="22" value="data: Date Time *" style="text;strokeColor=none;fillColor=none;align=left;verticalAlign=top;spacingLeft=4;spacingRight=4;overflow=hidden;rotatable=0;points=[[0,0.5],[1,0.5]];portConstraint=eastwest;" vertex="1" parent="20">
                    <mxGeometry y="52" width="140" height="26" as="geometry"/>
                </mxCell>
                <mxCell id="23" value="cliente_id: ObjectId *" style="text;strokeColor=none;fillColor=none;align=left;verticalAlign=top;spacingLeft=4;spacingRight=4;overflow=hidden;rotatable=0;points=[[0,0.5],[1,0.5]];portConstraint=eastwest;" vertex="1" parent="20">
                    <mxGeometry y="78" width="140" height="26" as="geometry"/>
                </mxCell>
                <mxCell id="24" value="imovel_id: ObjectId" style="text;strokeColor=none;fillColor=none;align=left;verticalAlign=top;spacingLeft=4;spacingRight=4;overflow=hidden;rotatable=0;points=[[0,0.5],[1,0.5]];portConstraint=eastwest;" vertex="1" parent="20">
                    <mxGeometry y="104" width="140" height="26" as="geometry"/>
                </mxCell>
                <mxCell id="25" value="corretor_id: ObjectId" style="text;strokeColor=none;fillColor=none;align=left;verticalAlign=top;spacingLeft=4;spacingRight=4;overflow=hidden;rotatable=0;points=[[0,0.5],[1,0.5]];portConstraint=eastwest;" vertex="1" parent="20">
                    <mxGeometry y="130" width="140" height="26" as="geometry"/>
                </mxCell>
                <mxCell id="26" value="Corretor" style="swimlane;fontStyle=0;childLayout=stackLayout;horizontal=1;startSize=26;fillColor=none;horizontalStack=0;resizeParent=1;resizeParentMax=0;resizeLast=0;collapsible=1;marginBottom=0;" vertex="1" parent="1">
                    <mxGeometry x="340" y="441" width="140" height="182" as="geometry"/>
                </mxCell>
                <mxCell id="27" value="_id: ObjectId *" style="text;strokeColor=none;fillColor=none;align=left;verticalAlign=top;spacingLeft=4;spacingRight=4;overflow=hidden;rotatable=0;points=[[0,0.5],[1,0.5]];portConstraint=eastwest;" vertex="1" parent="26">
                    <mxGeometry y="26" width="140" height="26" as="geometry"/>
                </mxCell>
                <mxCell id="28" value="nome: String *" style="text;strokeColor=none;fillColor=none;align=left;verticalAlign=top;spacingLeft=4;spacingRight=4;overflow=hidden;rotatable=0;points=[[0,0.5],[1,0.5]];portConstraint=eastwest;" vertex="1" parent="26">
                    <mxGeometry y="52" width="140" height="26" as="geometry"/>
                </mxCell>
                <mxCell id="29" value="cpf: String *" style="text;strokeColor=none;fillColor=none;align=left;verticalAlign=top;spacingLeft=4;spacingRight=4;overflow=hidden;rotatable=0;points=[[0,0.5],[1,0.5]];portConstraint=eastwest;" vertex="1" parent="26">
                    <mxGeometry y="78" width="140" height="26" as="geometry"/>
                </mxCell>
                <mxCell id="30" value="telefone: String *" style="text;strokeColor=none;fillColor=none;align=left;verticalAlign=top;spacingLeft=4;spacingRight=4;overflow=hidden;rotatable=0;points=[[0,0.5],[1,0.5]];portConstraint=eastwest;" vertex="1" parent="26">
                    <mxGeometry y="104" width="140" height="26" as="geometry"/>
                </mxCell>
                <mxCell id="31" value="email: String *" style="text;strokeColor=none;fillColor=none;align=left;verticalAlign=top;spacingLeft=4;spacingRight=4;overflow=hidden;rotatable=0;points=[[0,0.5],[1,0.5]];portConstraint=eastwest;" vertex="1" parent="26">
                    <mxGeometry y="130" width="140" height="26" as="geometry"/>
                </mxCell>
                <mxCell id="32" value="senha: String *" style="text;strokeColor=none;fillColor=none;align=left;verticalAlign=top;spacingLeft=4;spacingRight=4;overflow=hidden;rotatable=0;points=[[0,0.5],[1,0.5]];portConstraint=eastwest;" vertex="1" parent="26">
                    <mxGeometry y="156" width="140" height="26" as="geometry"/>
                </mxCell>
                <mxCell id="33" value="Endereco" style="swimlane;fontStyle=0;childLayout=stackLayout;horizontal=1;startSize=26;fillColor=none;horizontalStack=0;resizeParent=1;resizeParentMax=0;resizeLast=0;collapsible=1;marginBottom=0;" vertex="1" parent="1">
                    <mxGeometry x="343" y="131" width="140" height="208" as="geometry"/>
                </mxCell>
                <mxCell id="34" value="rua: String *" style="text;strokeColor=none;fillColor=none;align=left;verticalAlign=top;spacingLeft=4;spacingRight=4;overflow=hidden;rotatable=0;points=[[0,0.5],[1,0.5]];portConstraint=eastwest;" vertex="1" parent="33">
                    <mxGeometry y="26" width="140" height="26" as="geometry"/>
                </mxCell>
                <mxCell id="35" value="numero: String *" style="text;strokeColor=none;fillColor=none;align=left;verticalAlign=top;spacingLeft=4;spacingRight=4;overflow=hidden;rotatable=0;points=[[0,0.5],[1,0.5]];portConstraint=eastwest;" vertex="1" parent="33">
                    <mxGeometry y="52" width="140" height="26" as="geometry"/>
                </mxCell>
                <mxCell id="36" value="complemento: String" style="text;strokeColor=none;fillColor=none;align=left;verticalAlign=top;spacingLeft=4;spacingRight=4;overflow=hidden;rotatable=0;points=[[0,0.5],[1,0.5]];portConstraint=eastwest;" vertex="1" parent="33">
                    <mxGeometry y="78" width="140" height="26" as="geometry"/>
                </mxCell>
                <mxCell id="37" value="bairro: String *" style="text;strokeColor=none;fillColor=none;align=left;verticalAlign=top;spacingLeft=4;spacingRight=4;overflow=hidden;rotatable=0;points=[[0,0.5],[1,0.5]];portConstraint=eastwest;" vertex="1" parent="33">
                    <mxGeometry y="104" width="140" height="26" as="geometry"/>
                </mxCell>
                <mxCell id="38" value="cidade: String *" style="text;strokeColor=none;fillColor=none;align=left;verticalAlign=top;spacingLeft=4;spacingRight=4;overflow=hidden;rotatable=0;points=[[0,0.5],[1,0.5]];portConstraint=eastwest;" vertex="1" parent="33">
                    <mxGeometry y="130" width="140" height="26" as="geometry"/>
                </mxCell>
                <mxCell id="39" value="estado: String *" style="text;strokeColor=none;fillColor=none;align=left;verticalAlign=top;spacingLeft=4;spacingRight=4;overflow=hidden;rotatable=0;points=[[0,0.5],[1,0.5]];portConstraint=eastwest;" vertex="1" parent="33">
                    <mxGeometry y="156" width="140" height="26" as="geometry"/>
                </mxCell>
                <mxCell id="40" value="cep: String *" style="text;strokeColor=none;fillColor=none;align=left;verticalAlign=top;spacingLeft=4;spacingRight=4;overflow=hidden;rotatable=0;points=[[0,0.5],[1,0.5]];portConstraint=eastwest;" vertex="1" parent="33">
                    <mxGeometry y="182" width="140" height="26" as="geometry"/>
                </mxCell>
                <mxCell id="41" style="edgeStyle=orthogonalEdgeStyle;rounded=0;orthogonalLoop=1;jettySize=auto;html=1;exitX=0;exitY=0.5;exitDx=0;exitDy=0;entryX=0.5;entryY=0;entryDx=0;entryDy=0;startArrow=diamondThin;startFill=1;endSize=12;startSize=12;" edge="1" parent="1" source="35" target="2">
                    <mxGeometry relative="1" as="geometry"/>
                </mxCell>
                <mxCell id="42" style="edgeStyle=orthogonalEdgeStyle;rounded=0;orthogonalLoop=1;jettySize=auto;html=1;exitX=1;exitY=0.5;exitDx=0;exitDy=0;entryX=0.5;entryY=0;entryDx=0;entryDy=0;startArrow=diamondThin;startFill=1;startSize=12;endSize=12;" edge="1" parent="1" source="35" target="9">
                    <mxGeometry relative="1" as="geometry"/>
                </mxCell>
                <mxCell id="43" style="edgeStyle=orthogonalEdgeStyle;rounded=0;orthogonalLoop=1;jettySize=auto;html=1;entryX=0.5;entryY=0;entryDx=0;entryDy=0;startArrow=diamondThin;startFill=1;startSize=12;endSize=12;exitX=0.479;exitY=1.006;exitDx=0;exitDy=0;exitPerimeter=0;" edge="1" parent="1" source="40" target="26">
                    <mxGeometry relative="1" as="geometry">
                        <mxPoint x="410" y="341" as="sourcePoint"/>
                    </mxGeometry>
                </mxCell>
                <mxCell id="44" style="edgeStyle=orthogonalEdgeStyle;rounded=0;orthogonalLoop=1;jettySize=auto;html=1;exitX=0;exitY=0.5;exitDx=0;exitDy=0;startArrow=diamondThin;startFill=1;startSize=12;endSize=12;entryX=1;entryY=0.5;entryDx=0;entryDy=0;" edge="1" parent="1" source="22" target="8">
                    <mxGeometry relative="1" as="geometry">
                        <mxPoint x="140" y="631" as="targetPoint"/>
                    </mxGeometry>
                </mxCell>
                <mxCell id="45" value="n" style="edgeLabel;html=1;align=center;verticalAlign=middle;resizable=0;points=[];" vertex="1" connectable="0" parent="44">
                    <mxGeometry x="-0.9443" y="-3" relative="1" as="geometry">
                        <mxPoint y="-10" as="offset"/>
                    </mxGeometry>
                </mxCell>
                <mxCell id="46" style="edgeStyle=orthogonalEdgeStyle;rounded=0;orthogonalLoop=1;jettySize=auto;html=1;entryX=-0.033;entryY=0.16;entryDx=0;entryDy=0;entryPerimeter=0;startArrow=diamondThin;startFill=1;startSize=12;endSize=12;" edge="1" parent="1" source="22" target="17">
                    <mxGeometry relative="1" as="geometry"/>
                </mxCell>
                <mxCell id="47" value="n" style="edgeLabel;html=1;align=center;verticalAlign=middle;resizable=0;points=[];" vertex="1" connectable="0" parent="46">
                    <mxGeometry x="-0.9355" y="3" relative="1" as="geometry">
                        <mxPoint y="-10" as="offset"/>
                    </mxGeometry>
                </mxCell>
                <mxCell id="48" value="" style="shape=stencil(lZ3Z0hw3coWfhrcdhR24lu33UISoIUOyqKA4npm3H8B09XJO9QfzTktm/1WoRC4ntw/pp78+/fznxw/x+Ovb1y+/ffzH51++ffqQ/uNDjJ//+PTx6+dv858+pP/8kH769cvXj3/7+uXvf/zy/d///HlRrn/67y//s37hn9/5yq2PxRSPf33/D/VW4v/+h//6Tv775z9eyMch5KESufz65Mdf713IK/96E/LUfoj8YPLXh8m3hg8zgpDn9J683g4lDweRx9eHSfgw9daCkGc493ZLh5Af4z15vx3xhTzeGpL3LOQlvCcf5489yCO8ajhu/RD6A04yBP2uAY8yxNsYQl+IPt9iEPpMz1NupQn9/33ra/p2O/T5A4hx6Lemv09iH4/z9U764zbgeeZx50PpQdamoMcs9B3Oc90UpSdpm8Jcm9LT84xT1h/0Fc4nHbekz1PhoqdwS/b7IA8p3lIU+kLPk/TyTvoC9PmW9PuWDPRTPvX5yUKkpppt0tP79ltJQp/hffNxC3r+pGjzvN5d6BPIc06nEXmih/PJWfXJcYsgn3mq8qL08L1yu2V93wjqM3e/v4Gex/TtgfqkBH9+pJ/6U78v0udTfTzRw/mUdqqzJ3qQhzL8+wY4zxrUlh5oHGs61eUTPbxvNU9g0sP71naqsyd6uI91nK/3RA/3sU3x0u+F9OE0z0/0cP4tXtDDfWzJ9RXJT8u38iP3sRWXN9Inrd2iyg/p89ZvVe9Lg+fv9+N+sqcgDz2oPQ2ngrymj6f6e9AnkJ9u+jCg+9azys+8QHA+vbg/M+j57b5MgaLnb3qeEe1p704/wD/pQ73hhP7esO+bziDpHf14/b6Zf3/6txpZDJDnEdX/LGivR7qF1+9VUb9NetGf9bwQ1/T5NFcnfUP7OOmr0nfQJ6Po73f0lya9/P7g56mnenrQk/886eurfpsRTaMP1k57eGeYEQZI6GSociPjeUevGeYVqMqA79DVxw3pPLV3DFUufcbYfTKIlp5x0wFqYozTC3hiwEcaGmKHekv0oYcp0oaWbzJkYyBTMBnElM1grtB3GHas4/Qe3zG0V1naeMeTQbTLMh98Sv1VlqY+JX96MgiQEhOLxjj1851hoyGHRvRT5f0gQ71lsIHhMCU/tRIhMFccHf2Q9VCvemYqGlQDQx3xxJGcf7oZyxa+Qu3VVM1glmLpJeCv7zCj2cbCIXduhrON5TXIO5Rbp5fuClmmeuusLKvY87b7CxJApc5qoNkjDT7Wdkb0dxeAMYRlUl7/woyaKQgf9zO5M0S8EZOhiFeSTpvxjkHcyBlooyqreoFy2Rl2wSVnaI7CV9STyR1Do+U6yDsMjEUWw+s7lIMVflELMcPzzu+g3l7avYPI0gzQD1Izd/fxiYEc6MmQX017KadVescgiFeprL+LumSTYZB4Z1X4Zapv+nBZQdbJMJhBUJ1yx8HeusXy0lO1kZpJZ9j1xNDpiqZTNu+O+kb4ouWOAl/ReB7inSGy8xDPV7wzJEwGDAP7auZTCoqWTYZBpxQ0HK7z0vJfELyg1jNif8cgyngyEOK9GOQdGqYQJoNA3nXjiAbVrXV6/CSth4KikwEjiMOixMFK4O673MM+xmEmg2iNxkDGCtRfj7VF9OH6UOFb2BVBGcPeISO2OxkEO2vlREPeghNZGSi47NP9eXVOWkU7PRkkfG0N8cvJIEpgMpDZnQzpVTRaR0d3MkiGoA2EDBfkE5SBMJneNJXcWfgmg4AI/a4W3jGIFe0BYY1usGSf0krfwXCxnliWLKk8GRBJq4oK9IzQ/IL2ojKgtJqDNf9LItEoeoF6RfdnPoB+6cpwZlZ/aR40RdQLL329cQ9xfAfISoKhMyowGSRj0Afn95MJ38AcYTfXYTIgaJ3UmxmcZZvCLAZlMhCcMxkEdn8YsXcM4oYuy81/IRoD3oeo4r2wWob2Jcp6OETvGGpWBtTe4Yzanhio5KYHQzcjwstTMQrqsPxMEu/D3iEhTDEZxD5MBjrWZnDOcq4pBTVMljK6DpMhJWUgEKFZEmHFLMTQFbhbURGlubre6Ud0+o5B8korYObEmJ5Sxczt9CxEkU0GQvomg4QDCzyn71BOCO2JgRzdlTy0d6DgtSV14R5YyjXD3So/MVDQ1O746hMDWSBP4E4GeoeVIZa/0PEdpi+v2rtjAD7DC8lBj45FVCtEispAemkGYXpKHU9phnm5GgOomepfunMNXlT3Z2GL9EjhTB88M8B3mAG9indH1KG0M1S9MzCIsJCYQxnIby3J9NJAGLsEDTgeWY9rhsNOaeCHy91EY6Aiy/XikQZ8uFw0pHnkJK4ZLEc+OEmYkzrrj5zENUM4HeeT4SnDcM1xaB3fjiMNSxPuOJqGEFuOqh9vy1HMlPJRJXOPH6mVa4ao2N1iAAlMBtAsCQTLGIc5fgNj5Nj1461UIJxSrJo92tzTVYodlIHy4NHqDAdHHTFpBLu0GVj3lUg0BtLIMWi4uKwKvXRQCR9cLODFs8sycrXtYe9A4WIwzGjlk+BYg2XOl3WnAmZ3/DrmtUPTvPbgEoxQraTirhiuGayPYKW44MYFQ/wnAyHNIV/4cRSmhGRxTcM6mMngvihFTqvmwnxRcl6D66WK+dpVCj+UgeCTEDTOX1k3eodDE1or6iBYV8sLHuU618Gf5v5XORBhISc2+Rz6UVBzi/L8CRVAtY8c0ZYUc5c4YC/2PAwhZC3uHVztl09t9QSzUDI7m59+j8bf0Mv5d4b5k0ropKdQPWkFwsLGqLpd9fWCdvF5kqF7ZNSSqvde0X+OmkLoHNZbRq3nUxm/oRdPpLM8m3e+cDXqZjH0M2CpghUP94O7cdQP3iD1h+ZlF9IC73tos8OCQeB5Dr3vrWH1pCehWKcfWmw56fn5JdBuBe/jofdxISCgDw91rltCy31YZiVi7GVVUI3THk5/nID9/4++DsytOn1H++L0DfWP01fMMTp9Qe/P6TPaU6dPaB8tGK8RuynM3a1crX5YAcBxWsB39FKHMTbyL/ardMyaHRqjlIZAljWLFa5+PtT+Fq5aNf+q5A29+BslIa5m6H3Z6X/5XiVg4UzQZrdysJ9uZWSD3XSNNHJHeQ6nt3On33j12g+duRo+aNidC96XoP5tztztac0CiaND9a9WHR/aX/EHckB9GLQ5Nx/Y3RFUPic9FcsExSfT4O5cBUBTR2jPyoMmPflvQbMsqZ3prDf0kg1IFcGqoDhP2kRsCp+lgmBpsE5wbpK3ZsCUuTJa9e2m4PeKnvztoM3XaSfPSh/Qf7iip3jK6bn764oeu9+VPrI/EzR+nPQsP0rfEeq02rXYN/rff5+KH5yeCzOdvm70j9OzPdLz390vp6c2FqfPu+8lsxbYvgdtetl0u5k+Wd13qP8FkloamO270VO8E7TZf9M9bs1xgVM7wYY/DKxTiRqvrfELGL9rD1HH1qyo+enAyeCo9nHSk/8QteUjVJSfpPHdpCf/PFnvWsHzSWpfQsE0heEzCwmG+5i06CdkrJ9PKp8h87QFlc81HoRyS9qTEBInBjUeX413SK/DSRJPQ9D6oElP3drZhpnwbJhsacqIwL6V461WRsRXBd+Y9ARYF60lCgEzRMXuY8D42ppJw4H6tmgicNMcas3RgbvfqzVfb6YPaFcl9xRUdQcGoplVrS8Xjduvd6y/uyCnPFg16A2R6gtyMhQX5DT/6WruFpJr+T3OiLDZVQWrN4t1xyBGZ1VbXEdWDWLhqhlrpEGFUw0w2Qhw01+n9IBVjhTMYFf9qmUj7/KZKnZiVbXlFaGPegLvT+R8kIL8YaBeFdiqGNdUjUN35FLxX9GLMi1ZMalkE0IqF01dXD6+TSYEaNEEESrowFYFXAv6N1Z3t7se4r7uLl/R68FXWzvYNs/e7dnxYXw2Id+mHyFvPiWDcIWmfhmbgwtyMjYX5GTKjJwNpeXI2QxbrzHXLDYfp0EAk03HGzhdrpn/fGzmMMrtC4xXV/NXD6xYNnuzxhvi70u+cvqf5J/XC/+W/O2q+Z0QNv6qxjtxM5NT8PxJT+dTLL6L6HsUzXfP+AWnodn3TZhPz2o0Jz3NI8iKJ894kPDVbPhARnmzeoxJT92p2fz/jEozaU1SKKgbkurkFb9j/Kvyw85iMvlhy2/DxAK3cyXVbaFt8A3pt1z4DOI5qh84vxBtwEvH+hyrDwkD72M0/TCwSC2qdl74G+Jdh+N7nM8qSs/1JD5thuJf6xePXK8VVD9v8dX2g/it0u/wYadn/Flqnbf4ttNv8ndCv8PnlX6H/wtetM0v+O9z/kLpd/kRPf9d/kUHM+/yO07P+SOl3+WnnJ7zX0q/y6/JeW7zd/J9t/nB5vlHxPO75zd/JN+9zZ8Oz8/i/Rqe/8X6PR0e2LiCXQvYE9ez2cCNxC1IUe3jyr9Tgbzi+fnY5DsEB8jHxh5JfiqzvbDh1Zv6ByuxXvUV+L0E9tjUbzg914f481f0/224dOb61WiDoTrWa1mL86rP+ZF6m1X/8yP1G4WHeAStz1z1S3h/RT5L2vgbUm9ZMvqTh9b/PDrs3tAroMj5OKt3XfVpWA8p+nlb/yb++aqvg/M89HtVnl59aP5o1Qdyva7XH+LzSH3Otr5R6Xf1k0q/q89U+l39p9Lv6kuVfle/qvS7+liJv7b1t0q/q+9V+l39sE7U2dUnCyLZMuIhh3bBtfswsnf0Uk9e0Z+3ZRarPhzlX+ozW0O8wiY/Pdr83+lDr59HfS7y0xh/C4qfdM5vWvz4GHnxzt4JPU9/jjrNqPPwCVsOsvovsB4gen8H4ieiDzunWax+YPWnUCey+oedh1fa8o7VX4P9PuKf9IH63OYv9E1zt8Yjg+Mpw/fGgfer6PcaAc+/KD4zwiZrHF/11eB6BstCrCF8iPyLPI+E8HlXfTvpcVKi9bvxZJRgDTCDJ5gF87DWvEjSWD5QgLNMwSdyVI5RowlRRSMQrMpoMqCWTvYOFcO8VVVkjZmIE2RVFKsbFS5a8BkHm8p4K+ZYHbX04Wwg2ZqMQqLRFLwb7OwGWzWz6zseF6NUKB0TvHG/4f3xBpHVbE0BnFnkTf93DPaleViL1xgO7qFcRXT2F6gJZWl5mx9DXuMCNW3iArkhsamfM7hPJPp4pA1QPqytfqDmS+Fi5geFogtZ68awGWRhp0Tg2cK+fMwEeSM2jWMxUDrHBn7sGGymyIbBx5bsGAyS3DGYj7c5pWxFloObnHO5GChCXvCaUOPjPugduvkxPB8kDxs+MBBoL+bJD0bOH41nz1eUatquJpBQLFVsDPp+ntLFECny3g47pY7hSLV4ZDNQpCZryOeER80XM6EoInkAFM8M9A7VdGtHO12rNqUNnh5cmw177Iia1q6w+37kmbpwDeOMFmxwRMNjbdEqZbnyvtlenVGxsqtlmyrETuKaFXwoA3kCk0FHMXJ2vVUbDFcRvl7ohrx0QXx/bd8aykDKuLmTWBDhbz4ipKDf2vrFsEfK4bRux8pNu+1qygkOSrRdNpOBVGWzTTOP8fHvGDQQ5S0t3TqzR8L4YTJo0BSxtKYbNj24l2CNJj2UAYcyeywaeVRvMNEIPOva+k0H73bqltBc0+DplCwjOA5UM91SRoNL2BbCZn8h8iPp0BNuyuo2Da+zc7LmEydloPswGXSuCq9n6Db3sLMF6tmQzIZGsVspWK/oa3TbSdELb9YrWkXdOXkx/7fE0/Nvkhvarda5Z4x2u+FjPfH2Qdsz0zfr+8wCdd5kczE3fTPF2QteGUNcgmDT5XHAd7MsycB4uje1QI1h2YUK+wx+ktamQVNjB6t39WZaw56VtRZAGLgV/jEJ6s7AudfeNaRpbNh9FWTjwdLd7PTaGMH7HES3ts2A72EJpYDQ4/AJP5stMIdGu5WD13GoIqudFwRdJTHplIZNcVr7TfgvSCy626Bieb3KeOuwxPxjxPE7BqkMrYX3m9isypp5EaYN86usjIcVX1Qe5T6sWqlGBMqHlbPUwFvCoop3PXiNUlJpLZs9M0lRhzJ4/1WyBh0eATpdc1ECa3cUbzwV52Rtp6JHyla1wVWca1r9oQy4FtKWdpey26UmorHfEib+UsnYVjWKdT5tN51JLXwJvPmvKBCy39YmmMB+H5xIa96sFbP+iLXTjtSMpXVy4QtUtEIz88SXYc12OaGdXsk0eYfIwmfjZPNmD1lTWcobrdFs7M5AqGU0q0vtbBRtpP6CzulL28rdtaeSvoMtakqcF11gqe/a5AWjcuMeo7XfMUhYlnj7yDCAdr+RVNDQ/c5TwVv3W1XFOdnvbZUbt1kNe8HA22d9z/B+v63sQthv0JWxEPsdveKs77cAS53Afs+wTr452HUYCkiF7ZcW8V75ZL6iUuwZtndablzgXWorPeE7q+k7GPQYeB/cgvajMqCT2G0CzsY+NMUEwmYHcLOt2IlXgTfFNQI3BS2DIh8usH2wne9rTAfbae3j4rkb7glw3e2wwqjOWyotZ7nxQW1pAqNXy+/WDn38yFHdjIrZk7UYSwc1bLZyigbjOXfDBvtn3og2bPUvA45unXmXWFMRTViX381HimjLu7l5m92XFjFEfp6s/n/ASRlrYZzcMIaTog064u8VrBEWndRmu9EZdl/rt0SPYjDSTGfxHPZW9PwP9KRaVh/h4I1mtpzj4NShNQbxXPhm1TFcx9lscC/3EdWhjU0b+qbyf+C2k2qN8gfXcSbFRw9ERqpVrRyo/1cpg35f8reKzU3gPpwVrev7UoxWotOT/BRrxGH6bDjnhr4rRHigfptxdzb5h/OcYXe036e5AAagcJwyY+is70v2ItvgQ07iZUvXsj5JXe3jwX31ze8L+aHJin94T0DKmkPhvtkZqSZ7HtozYY2GB0bfM07N+n1xrsHhz099FNMdNHtBKdTYXJ+Qv3cxKA6zM9FAzcB9hlEDde778kacgHD6GpOgv48l280Gh3BfsQ8+4QVF2faa8ZxoH0TBfeZWfhTR3wjWGBS5WNsG80fcezFUnW/cT/WWEkqbhZCcRWvq+yfeIqoFQWk3V0o9fx4zKEW7mavvNK5jTK5afyeGORfkBCfYwxRe0unzvKjlwEKWujtIHRnHk40kAq+8kVSX21bMxtlcJq7VqCrvFesobOZhxfoxA9R55k3Vu7ojD3YyPHFUBwHSq9qsST7IoqWm/JkuxmqSENgaOhaxLfn8hz9//vbp+7/8+vn33//69vXLbx+f//+vX75+/NvXL3//45f7f/rr089/fpz/9m8=);lineShape=1;" vertex="1" parent="1">
                    <mxGeometry x="294.37503931297965" y="115.96769634064879" width="248.24690515312312" height="545.1570186708572" as="geometry"/>
                </mxCell>
                <mxCell id="49" value="" style="shape=stencil(lZ3Zsps5coSfRrcM7Mv12H6Pjmj1SDHtVoda4+XtDVgieU7mzw+jO4mnivwXoNasxIf8t78+/fLnxw8p/PXt65d/fPzvz79++/Qh/9uHlD7/8enj18/f1r8+5H//kP/225evH//+9cs///j1+////GVL7n/955f/2t/wP9/10i3WrZTC/37/YLZbmv//yX98l//98x/v5FtU+R5IfnaV//HJpXy+ZZHvtzRIfmSV/3GFl/LllofKz/Javt5Cei8/bgmuv956VfkKz7PdalP5Ad/fb0Wez7xFuN9xK0nlM7yveStV5X98cikfw62aQoUbiPHWmyq0Bgr5FoYq9AQK5VaLKdA9tPsjfKtAl9RvI5gC3fS6xZ9SSPFW/KZJIdvCPijUW7L3QDe9ll70e4Cts9ae7s2JtiKHW/GlAS8ux/vefbv4YLflfEuuANsnl1uxmy6kUO9/fqNABiO3W7YdSjs6+3sYtwn7YSmMqAr4HpbRyKrw45NrhXkLdkmRFdRq9FsHM1/CLZhfoPewFKopBFKIt2CekNbSUlAz0+6W6pXClC1a74/hWiHZnq58D8lsa8EXV/ItyuLLt043nc3/5PtyfKXw4/seCo+7ulYo9qbjrdE9lHuA8FAIt0lPqZiZCbfEChL0DLYaS6GLwrh7jJcKQxXwsRa1reOwH5bC+5se7X6RLxXev7hRb5OWRrlboTcKiZZ3Ues9yumxSjA5Mjr28tgubxQCraWqRmCs1Qo+bimIMR5rtYK53wpVFQ6XFGVpBN7T66m/Xxp93hfLS4WpCrgf6i2/X0udg9ylIA6lr6ibL6kGVUgHBbmHdit8SV1+oZ7W0ni/vHu52/NXCtMUEvjp0jTX6Blj76UQ32+gnnjxtfuGfCjEu1l4pZBFYdlWViimEPge6vul0ebdAbxSaKIwTgr9/VNqKxKgPd1uQxTa6R6mXNKyI/SUur7pVu6v8pVClF/I9zfzSkHedFtLg38hT1VAu9TtxcV7bPBKockvBEy9l8IwhUJOcahtrcvy0VMaGgksBao2LAVZGnXcGilMDU6WAj7WqZFA7fcE4brgEO4O6qGwdggriF2qlUsg8e6V3yjQU6pJnWItmOIvhTZUgULpmu+W9KGQseqw/iyLb31CO25dgOy4dZGUTy8FSTiWAlnv9RCD/UKkp1S1VrTezIT9UM0/VA5OloIuvkcd4lqh29KIWD5cqz9nVaBsd29IWUtsNZaNCFMV6MUtsyVB4lKgDbQUxNwvBYo1liUdVRUyKVjStBXgKTVLOJZCoqdU1YsuhQhvulmhcivQUzL/sBTIKS43fqEAy7tNjfmW8aTEb4UiEvNtawvvYUdHXRVoaayALTRVoGB9h4RVFShI7FZfWj6J0rIVB1dToDrfirRrUgUqU3SrMS+FTL8wNaXZnpvuYeoGWgoUke0USV4cl/l3EtZUYbCCrqV+6/CmVyKpT6lj0rRS1WS/QGtpZc+SvBZOmpaCGLIdydIlWQ60g2t6D00de+G0bFcxTIH2w66TiELFBtMYWiMrnPiNqfn0Tjap5TLVthaOl5bCtEui5b3rVbK8C5ZPl4JY710Eg6e0FIYpkLmfy43LJWWsLy0FSfGXAq3WpSCx9y530i8kWxoJY76lIBXdXeOlm06aoZRw/+RaIWvTpbCfXgqylnbpnN501iJzHhgkzqL9h6WA76HcE8mHQuenZGW73O525Fqh6vJeCrj4LDJ+tmFeKYghywVbIru0L7+Q0VQ+2+hvFMgI7G6DXFLClGY2jfly5MXX7gvhjQLV+XbHRO6BA92lkN//QuKe4rRYI02M+Xab6L2PSxw6zKHRfeJ8+tnffyg0rDrsBv/7pZEqJn67wy/3UPixTu1Pp8xGYGpNYOM2+Bf0PUSsnDwbs28UKLp/9uwfCgEr68+e/V0hMk7AfyEOLNDueyiqgFt0aigd+91jvHwPckkNE479poMqYCRgaylWxneM+8p5KBS+h6EZSuQW4QbURFWgAu02AvILCdPjpSCxxgaVkMtqmk/Hw2pt2nmNAbuWy6Fob5evqOprmNjv2y5R+kxsMor2/DumxrtPnESeUrglH6RGzvYiq71od6DXvxgoVWwY7UhMqm+nyE3yjEdf7pW8uMKCPbXds5bY8x7uvpLXwJDdWtBgOCMGZMlLXyazQwiaS2bMFzznydj7HVbWy/eWyMusTTwaGqElr5EIesyVd8r6SRhA7jxVr4fi+GEdn4QF7vGo4T8MENcvmq6feDcArzJ5iQUjYupGNRuN7aQlH8XiYg1pFPNjWHhe8rJ/IwZpoyiIMGIUOLLFBlxKyeaSEAA1rOPBKIDxaA3c5QPu941CiCJPKdewInjg9RDUQQZcD/3hDp/yWFOc6l8C2p8+NNIKuH+7xRyBS5ZNo9Fwb2S8KtNOvV8Ky7oBTwKiBrut54D21gvTXHfoSe1VwPW/YQHz5+Tt/ZJ8m9rKOsgPLdod5Lvaz4O82duDvIFyDvLF9zvKZ0XNHeSXO7H1RvJBEc8sX6f2W3m97Ta6XQ83HrteD+3H2hQvxx24JR9UvnBvNun9VrqeooDwgGMLNWuJOGD8Vm2OImCBuCZ/v4Plk+5HyrVrdH8a6PqjIorZ/+7+qMZLiDKdWrTh+KRY/BkZLWbYlceGeyUv9j9hPrK7Ihp/kv/aCDyVR8ResfoOxg/F5nAyY6GzxhsZ9++u3EtJ+ATOzpofUTuvBG0+F1yfeep6KHj9eWh9oGBxd9fgpWuLAOLcFWFZMZ7MTePDiriNXO/AkTf5NV2/rZ+KtemctRvU0F9ksz8MespBi1KMAUxTW0Ed6y27Ci2QWLSHu1wiyGTMd/bjFrw3f39RnM3k78/aK4sBF9Azf32jQB7smeC8qcFRyLo8ipiIpUA5T7QplJjwkuLQIDdmzAqjWelYsI64q7ddFahuFKvCztYnDTb++r5kFWPyfDErInHdFcHOok2hLAXCAK/XVMT3DSxGPFfOQ2EiqvIx2fZwTgGt0dAGZIrcwddnuqtBPJQpzpKrZU0hCKng7mw6pZMYgWDFmtSwGmpIxNQ5GrLvP+D/7fonjvRkda7LfOMcoGKXM+Mcs3ZZljuh1pIVl3PG60/qLHNh26h9pe1uyTRqcJ9PQ9iSrGaetvNga2A2YHjfwsi9pOtthWsEPozqvFc4SNU+GzEuGatT0YCEBaPdqEOhhRHU8QLJRc/HiillYHU8aHtrpTfUNQyafG6kJTx/Q9Nt0C5ej6zPA7I5aLG+PrBvL+SlJbnSaYoWXb5idc3gVbUh/DYYqLljtS8ohrMy5CYYynpidhIM3MvA2KD7pQWEbQRtHrSI/jrauAvb26jFvpbRnkd9X0889At5nXWpaA8Nqta42xm1edM6R642oTSwWmCw5DbR/lgxtwckmbBmQ49MDaD7tzN0Ken67xx3J0Wn7PI3+pdm8mT/08UsIO3HpPHnnh3E+5XiSG9Y3UwKvuyNmRZ0P/aO3eOkzYklz/GMFIs7j9wlLVbu+VB8vxKfd0aBXclTdp41MRwB5+izNieWPHWPjaFkRKzeZU3yBndfszZTR2JOCY33ljzZt6z+a3D3Puv+3e1S/H4ZsxsF0S5WDBoMkMtarHm2k1/Jyxx5RZB5VrDOkqd4Pms8ORqu56zx2GB0zJU8oY38ejqWLbIWx5c8X48Wpzp2J7I278c4PB8pXj/hHa/Wc1d5zjfTVHmqrvl+nDiNmxW/ueQpPjH7M8PJ3k6Vp+53MtqcgOvHYO6T0QrmvyZPBV7JEybxSp7zWZVPaP+v5MneXsn/3PUnLJC5fMb43+oVk6fFbT5xw/XQXwt6fslzfcBpaWgQw+ons2C+n4xEjeeNk9qTWRBdaPHthmPi+5L8ZcmT/7oiBkL+MXtfDfej1TcmD2BE405q2L2Jav/3qAHmL0puxnNn0Ti1mMvJmn+zY/3E8sfJ9Zmozbl9/ZzPOgkiXr+TMnK+qeutHfJZvx5k1Lu4X87f9Xlyd87fV+PGja2Ho7ytN4oHrtYz1zd8v5A/vdyPuN4ULN4wf4/GrtbQvll9Y8vj/ar9PO5H31+83ubPfX9y+8Pr3+0PPp+L/YjP3/cjv9+flVcCs4o0PtHYJyvms9FITHmoJGr9YTL6wOr/y/9y/USfDxOFJaNU5Dat1aNmxqarjXIf4yvlUzzFbyp/ig9dnuNPl+f4Vvf7KX5W+Xh4v7qeee7WhjfmAUqg9cPNEIjXo/Y2oP1PWm+fjCZOCo7c+R3er+zHMQ/1TCUHZA7SZMx9PDPs9bTBaCAFH49xqC9pvtwxnsxar971B5RP9v00i5i1fzQ69teyxj/H+ozLE4bDIBzH+pJ+/6l+pfXDymgsBWPt+hvXJ5PKIwuvDb8Vppe19ZAP9VUZ7ho8q23gxXGyz0p0mU71EKsnc/1f9/sjwn9lT+R+A+I3kvanxtFeSX+H6/NX8lz/137NQLS12dvdv2B7Lv2FfrC3Am7ebJU/1Z9qh/6a+KPO/Wjvl1WMJ83/9gc5+Kv4Sp5Pwf5sUvvTC6MvNT/tp/hKYHn9APwzZs6I04TR+n0B/WM0isqJ8YYB5hrXny2fasxuFI0M8ifzl8brx/v7Be2V4wcy4peC0tI1pjMI9+rEQ577a0H3y3Pc5YW8ICIr998dTzIP+BnxXxsfgt8v/ceNP0G8hzIPnvAtEu8d8TMqXw74Ftm/NWP/OiiesDKxTzC2SJ4+CcpvXJnENhhv0MT8KGg8XxgtHowf6lhvlO+vB3sl9bcDnVQ0hrh8sLfiTwtzwEfd74XjGauH53moJ4v9z3zoSrJhlY7TP0n7+3vc4mf8Y+b43OoPmadJLN7IzB9j/abM00JZ11uOWD+x/n4+4Suk/5jmAZ8s9Z+NTybiYB1+eyK6L+Wr4iU2RRDY86r41f0NfCiQEQThdLL698M01VD7nJjlfuh+3BaD2EE0Xt2IR3g+MWhBKk4sAMV491cPhYEZf0ya8sfOIZ+djBEPPSpjRFkK1CSMRosWK/I7RltGsfBNG+FXzNzHMxaMyCzJe7BDxigTv+lpv3BIbS1WjBF98TbuckkHMISNTk9sjqZi3QYurtno5eBiqPG6DU7Ghl5/52RyWrbHxY6g1QVuHmfL3hqfmJTVmzUsLmQn2uZhDzsaojJYx04kqAi+yV2jxYLFoBVrSHZV2PkN3QGFr39q9sPMneWCGojAHMWoihgsUmw6JCOYrBg6NSNDeMlGCchnWtj6SRis7NNOVB6vv+n6T1isfHLuPgwWn43SdT9ycluGU82Qb92j8Tp6j9QKwamHkMY+KJo4YrJUrVvO4PWdC6o8BevV0Ek8bFYNLfsg130lb1QwNBzoBwkw9Vw1tlSmmtnUFkr1g9QKNqoc+P3aOR8Bwb5X1B/k4K+oRWj9XFGXIK38BTUKyl9Qr6D8BbULyl9Qx6D8BTUNyl9Q36D8BbXOgabfqHtI/ooa6CBv1EMof0FthPIX1Em03nrRbhI3S3q9+H6iZqraTWJwcLdp44DFr02NpeuZ/Nem3tLroWHOPi+oig7UYXr9VKwcQeNJPjXIqf8DU89Fja8Ow+dJq48BwXPDum08jDey70cCC46s+UXAeGP3Wn/GXw/zX5GpDu0UAi72jWoEBkw1aUedRIyfn8ccPuULUy9mjX8oHnhiAd7Eb7Q+u1Ui+P0atV1ias1u7AhYfB9D0VIcDw+rERyoOI00mZvrw+xDRvs5g8aHGfPrGbSalZl6NxgDP1MBG5q14P66OAcB4/Np0/9cNZrJ80dkujf/WE/UvpJvVuaTzlrdZ2qgWZwaiPKjPSsg05D8/XYkPFcSp53YM/j5VI1X+YCf2XQ98xlFG8ss+R1zTT7B8G8UCI417SzBGPmSuhaYIwNkptVQlgJyvQ/ji+WW8xya9cTDiSlTw77IQ8RO0h/5gN3pnHU8FnxBod+ZhXoaax3XHue0GvZgpEOw3vDm+uHnqu6JwZVbQbobkbnVzYEkPldven8jYYlhTj1GNTEhyV5M8gsFO177RHdpkTFF0D4HQLx4Q4bLOYxxsJ9Y+iWOSoz6vDjbYzJLf9e++6F0vw2TlBaZhnifNCBMRJE3RNPiQWbix2nZWeaDWqeVp3PmgzSaTq9lRsNfnHXD8PxZdfFlnnebdrxz5l7ZNDrxpYB898Uomzq7oKJrKQ8Oq4x4LR+OrrE4Jk/m4Lcx6RIwc5nWsyyRL8mILArTuk+blCiJ93Syc/USEnHOqKe4FMb+TSNz2VyktLyj1h9K4WNfgj2lQwRtHZXnyfUvUxK56Xo6PkEvqXLRwjzQPvUO9sOwg2U2hojSWjs3qTTOI7udSddOibbCphqO0Y9qx7M1PhuwanCyT1Ckp1R0UqEwcmT4AXA8qjDSxUmWByb/C3AZvbho7G3M7jIMLrmP76QK5DT+Nj5oaSlIrFEGwgr2EaRdFQixtIucdgQp+bhu59+ezl2t2mY/nexa1E/vs2OpMGo0hoVPyOo2p1f4fPQetFRVuZbdptEKBwSQtKHFqnok6hc/vRUIS9X0TVf2oq0adTEDSDbY2Z4S0n9mzS1rwHm9ZgMh/8IR1V0VyNw3K4JXriK3cHG2OMUa+yDvqgrYRxzq2OuhEW17unKne3c2mypQUaAa63rlIxer02YnPu68GvQ74WqtReOlmnC2vZqZqQnB6zXbU8rcYDY61soV0Gp40wOfY006IF6ZsLPaac2VsXZPgsuHQsMuRjUMeOWZnjI1Pa4cOpSpUyJrh+AZAdNg9QPHGhwpsjYtpfj7nG8fhOBjFAQZ3bjZtmMXUWAzs0/h7qpAs2Gl27AOH81VurFBJqxgLQV5SssB4OEU/YLPkkxlsQMRlxM73IMUK1vDmK80bWosR3xQUI7KgW3n0mzIh0lOl4JO9XEjfClUU6AQ7nlW+UOBzX2xYyN7Qoeyj/GwSTfcDwYuW2EjZYrFijm9YghXDF7QmRx1KUg/asfKBNirmqH0zvdgXrRzSlOqtjhWgoAYRTteoU8MQ3e6bRSUeMBIVYj7xikcFKQNxMDnUjXF30gFWq1VI4HBscazKPFQ4FZrqTZon9kpWp3vMBleLF4aPLq6FYoqoBGoRkbA/cRSjQ20Y6xRjH5/DEaMFoW472oNK0gxZxwGaIrGS5N7hBtUm1SBSi3FwtDJsfdSkLbr5EMZSrZ7YFbxko2GisclSjLeNu7SlGTETxXT442ddmY4ugcrn07ulm80tyngyVZWE9hNEvIPNn25+zZ8tpLSo/B4ZJ4arE+u3edhBF8D697ZjvNaCtR/yF3t0pz4prOhiJ794WsFGyuZE5u72Y54nswik61WOSf2m7MhZyf347IdLLAVaDBxKPZ9d3uJ+aFrjWzyKH6qFzdN/iFlPyr8cPqF0dGdNHaLXBEYB42uIJKjRlM/d7jxfW68vws+eUgHrThbjMaL/wQoXCtYZXorUAPMiL/44KFhRHYTk8uuMdxhU7eL/YDHJCrxyOSTlooRtfGxYwalegJvrje0FhBm52PrtIe65MmnG3HN7AeiGyU6a2hf3IA1fD5RqxNbHok6ZfB88uCwHXyzm/k82O7ySBTg10OOMxpxdDsRAzaVT/w8jRiTiWg0JmwHIrhg7/cg79fDg/9+PUxs6NeDREkn+fWPP3/59un7f377/Pvvf337+uUfH9/+/bcvXz/+/euXf/7x6+Ojvz798ufH9b//Aw==);lineShape=1;" vertex="1" parent="1">
                    <mxGeometry x="52.64244084153643" y="118.8749086728917" width="505.1189556517619" height="542.2487541621954" as="geometry"/>
                </mxCell>
                <mxCell id="50" value="" style="shape=stencil(pZ1Z0hXHEYVXw2tHzcOzbO+DCCFBSAYCIQ+7d5Zx3+Fk368g/Cb91LndXUPOeepN/umP928/v3uTwh9fv3z67d0/P/z89f2b/Jc3KX34+P7dlw9f7b/e5L++yT/98unLu1+/fPrz48/f/v/z2zVy/dffP/1j/cK/vuH6OEJcqBT+/e0vcx4z/fcvf/sG+P3Dx0dAP2L+IUA7YlLA6ACoR3aAPgFQjtwU0AiQj1QUUAsA0hHcR//vmdeAcAw3rbG+BjR74/AMGDitbRy5K6DBKzVbuKaAEgDQjuBeKcIstXIMmdaOK93y0RygEiAdxQESvVI84nwGtGPALFXbzEUBhQDj6E0BAV6p9qPVZ0A9KuzW2o6WFRAIUI8uC1dwe1dbOJmlfMyMgFgVkGB713wUAdhS0hPS0cczIB6FPjo5uRSOMgBw+70TMCaehxrOnXMDjCPRE8I5JzdAxwNUpi7csL0E02qA9PzRo56H9howjiGAgrvVAFUA+ZQjrwDpeeFGOnJEQJB1iHjiSj8F4w0QTuH5CiB7qdtEw+YzQHt+JVOTg77BAM/i3tQkiZkFeF5pU5O7Jzyvg6nJSlvDAM/6wdRkBNm6ZkmekHavNOQbbOE2AFmHcFofL1f6+QCZ1mugFNdeet4apvVILi3A85lu9ZggZi4ABUXlAjxPq2m9yQs3n2fJtB5ZAv48mNbDV7pp5RsgnCvzcms8nwdTk4NfqT+fh6UmGSDnwdQkKUUDVHkC62kDlOdZqjc78xUgPy+caT2yNQyQ5BtMVPK0huftvZQYPaGpBjIlFukANbU1TCdtAOX5G0zFbF5J1O5SADStVY3ENdF0HqpqIHtm5SeIUrS/dFoHO8FBAZEOUDmt1BvA/kKbr+jWKBu1m/XE2V/IMrZ/lt1qf8FvSGoJ2F9QKZoaDwogH6jEoxcFoHES3cLFU45cA8IpVB4AhfZSOPfmA4D0Q56nT/UAiPANeZzq4wYIqFAMIG7ZAsBHZxMzUQHkZeWmPtACwErneh75RwB9tG3moYBOr5SP0B0A9lJOp9j6XkB0J27zSuG0Uh8BsHBpOlEZ0F5K41RQjwDYfMl0nHvChHVITZXiAoCYSfXilWi3pnJk2RoRBVm6qcBHAAjjlNQdKKzjUrwC0CsFdV4XANYhmpflhQA8IY4j+1eChYvd6biIjl9sat2vhSNAVdNhbT7QogYQu9UAjT66XAgycgeii8IZAKc1Hel5WjNHEmNUlWWACpsvBtWiBkhwHqYalXf5fzl+nI9/GN8oFqphRBtPxlJXMZkHelhNz79pFwoi1lNgPYyn+TFT7HmbmjJCX0Z90HwTaS/Gi5S38YHUggZYTNfRhnBb1Maj9HLrxYahWVBDx9N6mWMn65UxZhXVUDVF2umIuflMGGoMGjg0vUtBt3C677fxrNGC6tilpmH/BF0vO6FkQQb1Xmx8xN8Xu2WdaJjPoELUTuiE/RA0G5PYOQoaorcT3XE+9ffb+Yavxst8VrT5g0ZH7ISSfAsqr+zETR4/dDzZ70GDkXbiKu83eR/2QMJ5um/jA8q3oPJtzRier/k8ftkipOZ1P5spQmH2eO6u2/iOodSo+ity2DJqiNDGs/yU/WxmSIH5TLofzApBG1wzhTY+4e+LXWZGC+nHpA6pjSd5kjTyYDYOBTizni8bj+6oykMziSisls/d8jA+kNekcW+zoCgqnVU/xsBxEJU/81yQV+aA5ETPePCL4fV5tQammMppMN/C1+hcVXUz+qnsXwwXZ49PVnUxXE6EauCjop5o5yreh0eYGReXLJx/PxMR9+F0CLtuyowz4xIfGUVgdyYMnqhx/utNgmNscagHktA+GurApzPY82K4hNkjOoFD8y8RjcHphMfp1r7yhaYMpx05NW8eUVJGZ3px4GG5cs+vE9CysPHiGrAmj1GD95xDsfGyizkIZ+OHjqdw1HKOi44nSyHpMQl4Zu+K7GE8vX9W1yOgJ2SKOLjxZImUU5Hdx1P+J1YNEwW0LGy8qLbAnlZTcR/QUrbx3Y2n/dzVFWJPyAy/qO9PnrqNFxke2NKcfv4TxSZdaCVgHUG6OF+bMGDX9yHLZZl2+vubQGbW80W2RXIlMpzrTi7eFjBZYuOnnhcc335wfNdExmb8VNdyO/6Hfj8HrQXYjI9nFuU7xydVjpvxWQ2wzXhXHLcZX890xXeOb5qp2ox3yYXN+KHB1834qa4c7/+VaXPrRZ5BUCOSz3sJXt5ifjRqaC6gKbZymzr/WF6Q/Ppi6jJrqIH1bykayuB4/8qaq/mG8++yihGL4Vaxg46nyFlx8ieivbQq2yQ0h/ZkcfZnwvmvQStUEtpjNWrFY0YXqiaXejgPxPX47JJSGFmpvgSBq06rrm/F+axuP1S0J2vX8e38oOvxw48f5H1PTWJ3rnZ2ocuO/kILWig8uHQ5uopwdqmdfT4xWdzyeZy+MxTTiuauIp/gVjVDbj4EJSmbFxEJ16x1DfescBtsutbVaDW3INMqDE1ALL+AANN9dMUyGQNIisYsfVIE3cWQV0yVoidRd3bs6MoYQKOSHQsEe3IfPfgJSYMoy53gDgwp5Dd/ItMrZTVfI9fw9qKpzY0D0YvG2pdGpqaQqh5Z4poUA8gs3WsXrgHtIh2BsaymtaN3t+ga0PU8LLVJgKHNOQYgO6RPrQ1KHBI3gM6SCQGKmfmkSkFVMqJT5QV36zDTQGyLisGM4arxlnajbyha+mbqhxJzw0WX77UC14DmUpFcSz2alhWvCB+ch+HqwTOHHIYTxjmiTb4aNKICKOA5Xb4wc7h2BvUCM2ugGVV6r4w/2Bkzqd2WOcVlADGEzdUjITCzivvcsYhiFnUFV1UKzZIv65gY/JxNgzmbCqrZ1Foq3C+0GseeP3qV0NJHD5eEKKfwfAWQYPtygcB0mM4CXZXOtDWmq8YbWEE1Xb+QeTVk863OSykgD5gHms6aMb8Gw9zBlSSsKnhKEV8g2IhbL/V8SM1ZoazsdE195q1Qmda9Q/UGGNjEdO9QvQEmulerQ9X3YNAGn7rBzUOggMrqUJUn8EIYQDzEVjBEO13Iz1wEBAzNoC4XgQ+pNIi2ji7HammtCticahHH5iJQRZIBxJ4xix8X7qrriTS1AZoA4g4gmbfOftbsGusx85oMIANI1nNZyyy/5cSZ8UuFT0vgu4a4zRO0v62jg2wASUiZLUsRitX4K7M0MXk7XfPMCJjYNoD4WSOgY2YAqf1ftiw/QXbrSOhnmWrX5sqMDvKsan0bgFofp+vnMeN3Y23oLHHR5qzuoxuWjUwXmx8dK0EMIMHqwXVWs6gwHuzvGsC3M1OR+urYjgqgPpKZNWFgtixFHA0gEfFly9Lmc10ek6tP7Z+l73a1ldMsJT0Pc2P1Rdd8XzBtaQAlQSjYyTiDytZlLZOvONWDmNyuZltNaRY2zuVQQ3Q2rA0YLje0FAABmibnlk6iV3KydXYM5wzPItJxe4/qCATGzqMW53IOrgRyGdsFoFkqjshhYLBluJj95OZKE72S5LrbN68AYv5MNnSHq3CcA4314XkZxhlNeRWdqQ5ANanDZYYnNxuPoJHvOVBl9alK8W76vgKUoQCyjH2UbJnv8NFmu0hz5eToTHfdZzvOm64FEsuNokiflxoTUyjdtWQ/+IKvEFqvvEdoSehEh6C79soFoJYbz6sz0YPo3Ylj9iAuAdTLePlKpBYvP5o86stpJUN0rZz7BjrVfnPMieZJd17QAmz2q9vg2IzVteRpbnIQjhZkx2TlaBAmZ/16V6dmbT6epeqmlRyzNa1eDPA3iKn7PafaCw5+hETL9x8RnXjdTNPFGd08wb3SZqmVQmm7mZTKartdfxDgmHgmd5t018641Bx9w3DsWltFmp1up/jjyh45Kw4Ny+DY5gZG7oajgVoGDeVFoiMt29pY2vUw0HowgLpyG1s3O8Oyc+V41uD37JwyKxpenxyeGa6edwHIiisaBZ4dWQrMXpek3PI5yBKtzlncOClVo+XzRvb2yqvRzcepGgN0N63o+3X3hMYr7TiXZsOcwsriOQBltYcLTG8I8GZwcom7cGfQaPyGAG/6I1qwutcA00Uq8AmeuTDjLBlAAqKTE+0za4x2JhTGK54j68AleTNrvnYygYUBNFLB7Y7TEYnYZkkUfSy6vW07UpfV2giOk4+k9wr3CD1d4yhwVQ6yUTn6WLVz4x4oeAWQvTS4I8oAzcVocXu74MlIzINQNfo4uNFwyQiZJe4En037GQY3HExXfdYndoisKJpPEDBAAqKdVdaSpD7JQQvXNP/VK3Yl+bx5LzytXeObKxVEZ9qxnG1oAg0gjVirHo3OtHOzOlP3TEdP19j2nl2LyRoHgO6BvRuAez/nULt1JS450ylRr0W/Sx/tyhEaF+jOob3GrbB+mBq+b5nV7tQm00VEyAA5QG2TGnU9hpUJXeZUD6WOXQ1G+9FSAclZ7IsRpGhjX+6ggG0iv7miDRQCLgVRAxq60xVilW25g1bbcBR4una0wu3Tc2h/ZeGC8iUEHOsfbu+udL4lb8W9I8BDA8up3UVPx7lUqcAoHGqZxRHaDHSazIS7YAhiQ/eCwoe+Iek3ZC6uNCtV8sG58CsFPdM5Y6HucPVCOWHo2wC+zpCO6HAMYYuwjpwmF+jL3O86mkqNxPFTs1LFdFjt5ezia8E019qMojZf6mjCjezoeRo26Swr1RXqUsZ5xWaCAkgImNEpZzoVXIfupHfKfP2B09Or9RTETHfp3ZR2+YTiANTZ311xToocoHV0EwbAWLyjrE98HgwgGYvVr0/rUDRhtmmg60VTo5sOajOcJTYTNzdjeHaWidEfs7SlMixONBK7o82MnEs107w6ACXBe9DUaGTi5h40EWQAomxbtrwAGhbnNJdLjRVjlW2oEIiVyVS6KpTI8SWz5aXwMWaUrc11dxsAifyqRn8WIQT1KRU9QJFp95vraYhsJDbXNbEh+2nRpcvQ5GuupXegWq+us2QgP7e5CrIInVsyHfs8F6vW7qjh0SauLmZS0ayvrkClYs1ZdWxLBW3DuxtyH0++VU0akcmop6qn78RyeHNaZMNxlKs4Xy9hIWJxV71sCLBd5W9CSVeab3lG3vLmzvyWGF3HU+6gFHfi+f2zeudMTL1a4LVFnZoRimOHC8yJHj3lCJ2vRRGg70Nm0Z2u9mE88Wq7O57YoPBc4gGD4VcUDUhufkEBgeMvKCZw/AWFBY6/oMjA8RcUHDj+guIDx19QiOD4C4oSGn9FgbIZ7yhWcPwFhQuOv6CIwfEXFDSb8Y7ihqIbyTFKb8ZnDbryeVkUQPr+pL+Sa+Hn856iGqIBA313xqgHeQXyPE7Nx7F8u/dkP8hP+n3nWLK8XW3oOj9UExZdMjtg5DS6jA7ri0Xh9UOUaFXDDRvKteJ/Hyndip9P8ksW+YHOD3K8Z2fSYxWIeQiego869ZImWyPaz9HJT2YEjN75ZMqyqDXhkSnU3KWMEc/jItDQ8dipqwUpbI45ArXI7UgafY5YXDsdEzM2qw4ldk/IluL68hKe3KG1nAmzZ47qhUmeuyNFRzHVHQc8lzW7vAJuMlcHyITELl9bsTSsaV15xQyEu5ypocNSVR4wWX/VVeWmKUfAOPhuQ405Dsz0ubqOyRddubIovljOeVoBk63Z8TqzKnTldZGvJMlaxWvj6QA6yyiyOMgXzD0knLLj7Wa2q3QVD4P5SVpjtni7kUdcQ08FXVF3s8jiHWeechnf+OoS9VQWxw+pThdg5Hs5ouukGPj+UePzke85iY48hNnzXI3sJjrvyHdX6AN5/SWtv2x52D9B5eZSKXjPgBLvZExtOcs9cU+rI0Pd3qsgKc/tvQ1KO93w/Prf76jlXNH0hgs9aKnhnen61fy7ezn4noTqxtN5CZpIyQFN06DyPHOhSlTPNUcMZUcXueTKmaiRkszFoUnPe+b9n7RgMHPSMiu/Sy5oKmc9j5lvUc2aZcqVr5p1REGVbzh1v8+kbdWROzbUX458KXfcz80xI3VMfLvSlNy5+0QjVesaQnh/V2yWuedh6nm08eh6uwO/+GMJ4BL3eeJNOdFftcTtYdERPmfuGVomidQHBTSyosvZFQ44R1dlWwLfZ9YcZ9EmZOJ64jZXP8bhKsG4JvziMj2OgiR/Xd/mFkQXdts9IV0BONCo1Wwc+fHuxu5ySVfivQBET+4a6gvz+aeuIngBKHrrqHUKX7u+srfulaiwKzurpQRMq19e8klm4OU1omSHXF5UioDibqPcvJIj8iubK3Ta1UfTHXauW3ItHH2Di78UDszeZfV37tbsyJc3UmMJRkcgh7ndoB5X4eBjiRd3dhKRX4la/lYiisrFYCdPSNjWV7K7gpPrRxdHeFUAuV3rFmp3azTZbYtV3NXAklIsLqd3/4lrQHWytaKrs+4HjwrANHLV4MO69fzH7jjnprv1e/IEbuAsTYvIC/s7xfFr1Q39vaMEqHyzV3EN+5VLWovLJq/6EC6PECO38j1QBhBrplZM2BV3fWrdrLSrCa+dSwyGpmTr4M3neqxXVRIDZOHapqpiXHVh0MINvSSxpR1Aohcto/e/APIN7O5dABpfHT80gNE65orXR0uDzuD7FIaWeHe+AKa4m8I6p4+KLx9LfGWDa2PqBRNyCyBPqGhrFHc5Wudb6UpXD2W1xG1OnEwrV50Xx794r7B+udKucZDM0DLUU1xV4nwepI5g1aHTtDoezMHNwGVqptMAqNinCuNVrU/f4JKXq5md78PQyxM7VndWdzfpGOgeG0CMxMFB6prUhJt8B1d1BtbqLWGAEtQltASq4/2b3ENXXZZsMdrRtFYtapqcoDQVqMRonBsxFagADlZXdxXLrJwEDeo/rF5cKi2OjmSvofRu7iLXe+PrNcCRaK8+Vq6nVv7Fzq/UHDsiU2osjeZpQej+jXFBPEIaqDlS4slE4N15WavLlDsYPM8Z3sqQ3UpPPHGmAlUITL4zoaqtMfmS2d4uuIE2VFaeG4ga1rqzKr8D4KmsNgC3Dkj4NRz/4pZM6IK0jBntLkjLmExIKWYm379xBSDb+/KVsLPq6qORNupqWvHilKuFwxN3tTWwK+lq8/2fAPuPz2+/vv/2P798+P33P75++fTbu8d//+XTl3e/fvn058efb3/64/3bz+/s//4D);lineShape=1;" vertex="1" parent="1">
                    <mxGeometry x="275.49124077271745" y="114.07610238530935" width="516.8903811857608" height="613.8063333122819" as="geometry"/>
                </mxCell>
            </root>
        </mxGraphModel>
    </diagram>
</mxfile>